<svg version="1.1" xmlns="http://www.w3.org/2000/svg" viewBox="0 0 1219.8520142440784 385.93476044115005" width="1219.8520142440784" height="385.93476044115005">
  <!-- svg-source:excalidraw -->
  
  <defs>
    <style>
      @font-face {
        font-family: "Virgil";
        src: url("https://excalidraw.com/Virgil.woff2");
      }
      @font-face {
        font-family: "Cascadia";
        src: url("https://excalidraw.com/Cascadia.woff2");
      }
    </style>
  </defs>
  <rect x="0" y="0" width="1219.8520142440784" height="385.93476044115005" fill="#ffffff"></rect><g stroke-linecap="round" transform="translate(22.037858222864088 101.49771748735049) rotate(0 35.3515625 32.53773834745763)"><path d="M34.31 -0.56 C41.4 -1.13, 51.65 3.06, 57.67 7.3 C63.68 11.54, 68.96 18.36, 70.4 24.89 C71.84 31.42, 69.47 40.38, 66.32 46.48 C63.18 52.59, 58.01 58.72, 51.53 61.52 C45.05 64.32, 34.85 64.81, 27.44 63.27 C20.02 61.72, 11.62 57.26, 7.05 52.25 C2.48 47.25, -0.19 40.04, 0 33.25 C0.18 26.46, 3.54 16.83, 8.18 11.53 C12.82 6.23, 22.96 3.43, 27.82 1.44 C32.67 -0.54, 34.97 -0.17, 37.3 -0.38 C39.64 -0.58, 41.6 -0.3, 41.81 0.19 M43.17 0.94 C49.87 2.05, 58.28 6.9, 62.65 12.12 C67.01 17.35, 69.25 25.7, 69.37 32.31 C69.5 38.91, 67.96 46.47, 63.4 51.73 C58.84 57, 49.25 62.07, 42.01 63.88 C34.77 65.69, 26.57 65.48, 19.98 62.6 C13.39 59.73, 5.41 53.02, 2.46 46.63 C-0.49 40.25, 0.44 30.93, 2.26 24.28 C4.09 17.64, 7.88 10.76, 13.41 6.74 C18.94 2.72, 30.39 1.17, 35.45 0.16 C40.52 -0.85, 42.68 0.45, 43.8 0.67 C44.93 0.89, 42.58 1.13, 42.21 1.47" stroke="#000000" stroke-width="2" fill="none"></path></g><g stroke-linecap="round"><g transform="translate(53.52620568049133 166.34637966613928) rotate(0 -1.4521450865112513 39.39405481722622)"><path d="M-0.37 -0.03 C-0.8 13.39, -2.9 66.83, -3.55 79.87 M1.64 -1.09 C1.13 12.06, -3.97 64.89, -4.54 78.27" stroke="#000000" stroke-width="2" fill="none"></path></g></g><g stroke-linecap="round"><g transform="translate(50.22906584998236 247.25872076783094) rotate(0 15.35585204387013 23.645270226544255)"><path d="M-0.03 -0.08 C5.45 7.87, 27.11 39.2, 32.21 47.33 M-1.5 -1.17 C3.96 6.95, 26.62 40.48, 31.78 48.46" stroke="#000000" stroke-width="2" fill="none"></path></g></g><g stroke-linecap="round"><g transform="translate(45.63425652795013 243.7364750051213) rotate(0 -13.79163799841524 22.824525763980432)"><path d="M-0.08 0.98 C-4.6 8.32, -23.17 36.66, -27.5 44.02 M-1.58 0.45 C-5.69 7.94, -21.04 38.1, -25.2 45.2" stroke="#000000" stroke-width="2" fill="none"></path></g></g><g stroke-linecap="round"><g transform="translate(9.963045265292749 210.8425950980502) rotate(0 21.50173213120354 -13.106975809497015)"><path d="M0.98 -0.78 C7.75 -5.07, 33.82 -21.68, 40.61 -25.83 M0.04 1.42 C7.2 -3.22, 36.11 -22.79, 42.97 -27.64" stroke="#000000" stroke-width="2" fill="none"></path></g></g><g stroke-linecap="round"><g transform="translate(50.27951419684541 183.06473801538345) rotate(0 14.683858355260838 17.48103523140307)"><path d="M-0.78 -0.68 C4.26 5.1, 24.97 29.71, 30.15 35.64 M1.01 1.58 C5.95 6.9, 24.7 28, 29.52 33.75" stroke="#000000" stroke-width="2" fill="none"></path></g></g><g stroke-linecap="round"><g transform="translate(77.42686772666059 189.62711504815434) rotate(0 79.06606663035669 -39.296129064363356)"><path d="M-0.31 -0.48 C25.88 -13.42, 129.97 -65.21, 156.14 -78.11 M1.73 -1.77 C28.39 -14.56, 132.75 -64.59, 158.44 -77.13" stroke="#000000" stroke-width="1" fill="none"></path></g><g transform="translate(77.42686772666059 189.62711504815434) rotate(0 79.06606663035669 -39.296129064363356)"><path d="M136.72 -56.93 C140.36 -60.52, 145.24 -64.42, 158.33 -79.07 M136.98 -56.25 C146.77 -63.2, 153.26 -72.75, 158.79 -77.86" stroke="#000000" stroke-width="1" fill="none"></path></g><g transform="translate(77.42686772666059 189.62711504815434) rotate(0 79.06606663035669 -39.296129064363356)"><path d="M127.8 -75.41 C133.28 -75, 140.08 -74.92, 158.33 -79.07 M128.05 -74.73 C141.18 -74.39, 151.18 -76.66, 158.79 -77.86" stroke="#000000" stroke-width="1" fill="none"></path></g></g><g stroke-linecap="round" transform="translate(249.35201424407842 14.434760441150047) rotate(0 103 52)"><path d="M-0.4 -1.58 C48.31 -0.59, 94.62 -0.93, 207.78 -0.47 M-0.79 0.22 C79.25 -0.9, 159.17 -1.81, 205.98 -0.48 M204.19 -1.46 C204.39 37.47, 204.77 75.88, 205.8 105.97 M206.68 -0.46 C206.07 29.62, 205.75 60.72, 206.63 103.12 M205.39 104.91 C144.18 101.58, 83.63 102.36, -1.14 105.05 M206.11 103.86 C133.39 101.59, 60.33 102.66, 0.82 103.58 M-0.77 103.9 C-1.93 83.34, 0.06 62.11, -0.21 -0.76 M0.52 103.18 C-0.35 74.62, -0.01 47.97, 0 -0.7" stroke="#000000" stroke-width="1" fill="none"></path></g><g transform="translate(280.3520142440784 53.43476044115005) rotate(0 71.5 12)"><text x="71.5" y="19" font-family="Helvetica, Segoe UI Emoji" font-size="20px" fill="#000000" text-anchor="middle" style="white-space: pre;" direction="ltr">feature updates</text></g><g stroke-linecap="round" transform="translate(572.3520142440784 87.43476044115005) rotate(0 91.5 88.5)"><path d="M29.09 23.96 C29.09 23.96, 29.09 23.96, 29.09 23.96 M29.09 23.96 C29.09 23.96, 29.09 23.96, 29.09 23.96 M7.05 55.76 C20.18 38.29, 33.52 22.96, 39.01 17.75 M6.78 55.48 C14.59 48.58, 21.1 39.48, 40.98 16.41 M6.93 60.8 C21.93 46.24, 32.76 31.97, 52.51 9.56 M7.2 61.74 C20.53 47.28, 33.43 31.58, 52.74 10.49 M6.22 69.06 C18.44 54.57, 30.38 41.33, 58.46 6.12 M5.02 69.56 C16.13 57, 28.3 44.77, 60.77 6.71 M5 79.66 C21.61 58.46, 41.77 35.96, 66.42 4.57 M3.7 78.87 C18.22 60.33, 33.41 41.32, 67.03 6.73 M1.42 85.25 C23.73 56.93, 48.52 29.12, 73.63 5.56 M1.92 86.74 C20.34 64.57, 38.24 44.49, 71.84 5.82 M0.67 90.74 C20.27 73.45, 38.07 52.78, 75.44 3.56 M2.06 92.54 C29.76 61.44, 57.75 27.78, 77.79 5.62 M3.33 97.35 C18.59 78.34, 39.59 55.03, 82.9 4.79 M2.08 96.54 C29.68 66.15, 55.76 35.25, 82.86 4.63 M4.41 103.56 C27.48 73.69, 48.06 50.39, 90.45 3.54 M4.03 101.37 C29.05 73.5, 54.43 43.56, 89.57 2.94 M2.91 107.15 C32.58 75.27, 57.25 46.2, 96.26 2.1 M5.16 106.52 C36.71 71.19, 67.37 33.35, 94.88 2.78 M4.26 110.92 C41.54 67.86, 80.82 26.41, 102.53 1.8 M5.74 110.57 C29.62 84.38, 54.24 56.9, 101.89 1.96 M8.59 114.7 C34.16 87.33, 57.98 58, 105.23 2.54 M7.01 115.73 C28.16 92.16, 49.81 68.99, 107.23 1.96 M9.75 119.87 C48.15 79.41, 83.06 34.34, 109.01 2.18 M7.52 120.8 C29.92 94.15, 53.96 67.68, 109.28 3.78 M6.99 126.07 C33 95.9, 62.13 67.71, 115.53 5.15 M8.43 126.47 C28.98 102.75, 51.58 78.36, 114.18 5.09 M13.2 130.2 C37.68 97.43, 63.99 68.21, 117.23 4.92 M11.23 128.74 C51.55 83.74, 89.73 37.43, 118.99 7.15 M15.44 131.49 C53.11 85.75, 94.15 41.4, 122.92 5.97 M13.7 132.51 C55.87 86.77, 96.81 38.63, 122.82 7.33 M16.42 136.43 C47.31 100.88, 80.59 63.16, 128.12 9.56 M17.01 137.03 C45.31 104.49, 73.03 72.11, 126.65 9.37 M17.58 140.28 C44.37 113.41, 66.64 83.87, 130.08 10.77 M20.15 137.91 C61.66 93.1, 102.61 46.28, 131.88 8.85 M20.11 142.37 C63.95 95.97, 104.97 50.04, 134.77 11.41 M22.6 142.86 C62.09 93.84, 104.26 47.23, 136.77 10.72 M23.86 146.5 C64.02 99.14, 103.31 51.06, 139.2 13.85 M24.64 144.72 C65.96 96.39, 107.67 49.61, 140.35 13.56 M28.44 148.3 C65.82 102.78, 108.83 57.17, 143.79 16.5 M27.99 147.15 C51.85 119.67, 77.24 89.43, 142.16 15.53 M30.17 150.41 C54.48 124.31, 80.73 96.33, 147.3 18.76 M30.26 152.47 C70.71 102.63, 112.08 56.93, 144.81 17.9 M33.09 155.02 C55.32 128.02, 79.46 99.68, 147.92 20.37 M31.42 154.57 C64.03 118.53, 94.58 84.01, 148.48 20.81 M34.59 158.31 C60.21 126.94, 87.62 97.74, 149.52 22.54 M35.01 155.96 C69.05 116.26, 103.58 76.85, 150.72 23.02 M41.18 159.3 C71.62 123.56, 101.8 89.55, 152.73 25.55 M39.32 159.01 C81.49 111.07, 121.98 63.6, 154.99 25.86 M43.37 160.24 C74.22 125.73, 102.68 90.67, 156.53 30.7 M43.84 160.97 C77.96 118.6, 113.72 77.78, 157.79 29.83 M44.77 161.94 C81.41 120.7, 118.55 77.89, 160.63 30.08 M45.79 163.67 C82.06 123.57, 116.28 82.48, 160.53 32.73 M47.63 165.73 C74.06 137.09, 96.41 108.41, 164.48 35.55 M49.28 164.07 C87.8 122.87, 123.57 81.87, 164 35.25 M51.99 166.98 C95.55 121.36, 137.68 73.49, 166.22 35.76 M53.8 166.21 C89.35 126.8, 124.18 87.11, 166.89 36.44 M57.26 169.09 C98.09 121.46, 139.19 74.15, 168.42 42.63 M57.42 167.78 C99.64 120.21, 141.62 71.61, 166.94 40.72 M60.54 169.22 C84.59 143.82, 111.34 116.04, 168.96 43.88 M60.59 170.29 C96.76 128.21, 131.9 88.77, 169.45 44.83 M63.03 172.09 C95.75 133.55, 130.4 96.37, 172.16 48.48 M63.97 173.4 C101.82 127.01, 141.69 82.29, 171.75 49.89 M67.59 175.94 C105.54 131.69, 140.68 89.29, 173.71 53.46 M67.63 175.35 C99.15 137.62, 130.6 101.78, 173.76 52.64 M71.16 176.52 C109.05 132.96, 149.27 87.45, 177.03 55.88 M72.83 175.47 C103.8 141.71, 132.37 108.7, 175.8 57.93 M78.42 177.66 C101.57 150.51, 124.46 123.91, 176.25 61.31 M77.27 175.26 C112.17 135.46, 145.92 94.95, 177.04 61.7 M84.08 176.42 C116.53 137.02, 153.15 97.28, 181.2 63.12 M82.85 176.03 C117.67 136.02, 153.97 95.15, 180.07 64.76 M86.57 177.68 C119.96 137.06, 152.09 102.59, 182.47 69.7 M86.86 175.98 C123.47 136.24, 158.87 96.96, 181.37 68.53 M91.06 175.08 C117.24 148.69, 141.51 119.94, 183 72.23 M92.49 177.63 C124.99 138.46, 159.16 100.43, 182.45 71.29 M96.4 176.05 C116.59 153.02, 138.05 131.43, 181.84 77.94 M97.31 177.41 C117.43 154.78, 135.41 132.8, 183.13 77.94 M102.84 178.04 C130.23 143.51, 158.38 110.99, 183.68 83.05 M102.44 176.32 C123.21 154.19, 144.78 130.89, 182.5 85.47 M110.34 174.29 C127.54 153.56, 147.56 131.64, 181.29 91.58 M110.38 174.22 C134.94 144.72, 161.08 115.87, 182.95 90.23 M116.29 172.32 C133.6 152.16, 155.04 128.19, 181.17 97.33 M118.23 172.85 C139.72 145.12, 162.71 119.86, 183.22 98.45 M123.1 170.2 C143.83 145.91, 166.87 124.12, 180.55 107.14 M124.8 170.56 C144.85 147.48, 166.87 122.45, 180.99 105.95 M131.9 170.49 C145.29 152.9, 159.43 136.65, 173.08 118.9 M131.79 168.8 C147.11 151.19, 163.59 131.06, 174.01 118.68 M139.52 167.56 C146.62 158.05, 152.93 152.32, 167.66 129.97 M138.26 165.88 C148.16 156.1, 154.81 146, 168.48 131.67" stroke="#fd7e14" stroke-width="0.5" fill="none"></path><path d="M64.6 4.28 C75.39 -0.08, 89.34 -0.08, 101.63 1.19 C113.92 2.46, 127.78 6, 138.36 11.9 C148.93 17.8, 157.87 26.76, 165.06 36.59 C172.24 46.42, 178.97 59.3, 181.47 70.86 C183.97 82.43, 182.81 94.58, 180.07 106 C177.33 117.42, 171.93 129.53, 165.05 139.38 C158.17 149.23, 149.31 158.93, 138.79 165.09 C128.26 171.24, 114.21 174.89, 101.9 176.31 C89.6 177.72, 76.63 177.2, 64.98 173.59 C53.33 169.98, 41.53 162.62, 31.99 154.66 C22.46 146.69, 13.18 136.43, 7.76 125.81 C2.35 115.19, -0.32 102.88, -0.52 90.93 C-0.71 78.99, 1.67 65.25, 6.57 54.12 C11.47 43, 20.08 32.35, 28.9 24.18 C37.73 16.01, 52.29 8.71, 59.53 5.1 C66.77 1.49, 68.88 3.04, 72.35 2.51 C75.82 1.98, 80.14 0.46, 80.35 1.94 M120.03 5.32 C131.14 7.66, 142.22 15.23, 151.44 23.24 C160.67 31.24, 170.28 42.7, 175.37 53.35 C180.46 63.99, 181.99 75.19, 182 87.11 C182 99.02, 179.9 113.77, 175.4 124.83 C170.89 135.89, 164.12 145.54, 154.97 153.47 C145.83 161.4, 132.55 168.48, 120.53 172.42 C108.52 176.36, 95.11 178.13, 82.88 177.11 C70.65 176.08, 57.64 171.98, 47.15 166.27 C36.66 160.57, 27.55 152.5, 19.96 142.88 C12.38 133.26, 4.53 120.25, 1.65 108.55 C-1.23 96.84, 0.38 84.05, 2.66 72.62 C4.94 61.19, 8.59 49.79, 15.34 39.98 C22.09 30.16, 32.99 20.23, 43.14 13.72 C53.3 7.22, 64.18 2.61, 76.29 0.95 C88.4 -0.7, 108.35 3.17, 115.79 3.79 C123.24 4.4, 120.55 4.13, 120.96 4.64 C121.38 5.15, 118.83 5.27, 118.28 6.85" stroke="#000000" stroke-width="1" fill="none"></path></g><g transform="translate(630.3520142440784 151.93476044115005) rotate(0 33.5 24)"><text x="33.5" y="19" font-family="Helvetica, Segoe UI Emoji" font-size="20px" fill="#000000" text-anchor="middle" style="white-space: pre;" direction="ltr">Featury</text><text x="33.5" y="43" font-family="Helvetica, Segoe UI Emoji" font-size="20px" fill="#000000" text-anchor="middle" style="white-space: pre;" direction="ltr">API</text></g><g stroke-linecap="round"><g transform="translate(458.3520142440784 104.81670187635751) rotate(0 56.92867380663057 18.670305569793783)"><path d="M-0.09 0.31 C19.16 6.46, 96.19 30.54, 115.45 36.81 M-1.59 -0.58 C17.6 5.72, 95.61 31.26, 115.09 37.92" stroke="#000000" stroke-width="1" fill="none"></path></g><g transform="translate(458.3520142440784 104.81670187635751) rotate(0 56.92867380663057 18.670305569793783)"><path d="M85.61 40.61 C92.69 40.43, 103.5 39.45, 114.7 39.03 M85.21 39.5 C96.16 39.07, 107.77 38.52, 114.88 36.92" stroke="#000000" stroke-width="1" fill="none"></path></g><g transform="translate(458.3520142440784 104.81670187635751) rotate(0 56.92867380663057 18.670305569793783)"><path d="M92.1 21.14 C97.22 26.78, 106.09 31.61, 114.7 39.03 M91.7 20.03 C99.97 27.13, 109.05 34.17, 114.88 36.92" stroke="#000000" stroke-width="1" fill="none"></path></g></g><g stroke-linecap="round" transform="translate(846.5967327691048 19.662209366168554) rotate(0 32.46427586595519 38.746239126789106)"><path d="M-0.93 1.02 L66.17 1.16 L62.96 75.72 L1.77 78.62" stroke="none" stroke-width="0" fill="black"></path><path d="M-0.32 1.85 C25.17 0.1, 47.85 -1.68, 63.86 0.06 M-0.39 0.55 C25.05 -1.02, 52.47 0.53, 65.44 0.63 M62.95 -0.72 C63.01 24.21, 66.77 48.86, 64.14 76.33 M64.98 -0.13 C64.89 28.7, 65.32 56.19, 64.29 78.32 M66.69 79.12 C46.46 78.51, 22.8 75.47, 1.38 78.71 M65.85 77.99 C52.41 76.63, 38.64 78.12, -0.79 77.77 M-1.35 78.92 C1.39 53.3, -0.51 31.93, 0.66 -0.23 M0.37 76.75 C-0.23 57.16, 0.02 38.33, -0.26 0.57" stroke="#000000" stroke-width="4" fill="none"></path></g><g stroke-linecap="round" transform="translate(847.1406327068496 86.38192616668675) rotate(0 32.41917099416446 12.243797357806528)"><path d="M18.12 1.39 C23.87 0.19, 34.14 0.4, 40.96 0.94 C47.78 1.47, 54.98 2.39, 59.05 4.61 C63.13 6.83, 66.16 11.56, 65.41 14.28 C64.66 16.99, 59.58 19.14, 54.54 20.89 C49.49 22.64, 41.97 24.63, 35.14 24.78 C28.31 24.92, 19.27 23.48, 13.54 21.76 C7.82 20.04, 2.48 17.03, 0.8 14.45 C-0.87 11.86, -0.86 8.76, 3.5 6.26 C7.86 3.75, 21.55 0.39, 26.96 -0.59 C32.38 -1.57, 35.88 -0.06, 35.99 0.36 M25.84 -1.15 C31.82 -1.81, 39.46 1.2, 45.66 2.64 C51.86 4.07, 60.08 5.42, 63.04 7.47 C66.01 9.52, 65.7 12.26, 63.45 14.92 C61.2 17.59, 55.59 22.02, 49.55 23.46 C43.51 24.89, 33.9 24.23, 27.21 23.54 C20.51 22.85, 13.89 21.02, 9.35 19.31 C4.82 17.61, 0.62 15.72, 0 13.31 C-0.61 10.91, 1.47 7.14, 5.67 4.87 C9.86 2.59, 22.13 0.39, 25.18 -0.33 C28.23 -1.05, 23.71 0.4, 23.98 0.52" stroke="none" stroke-width="0" fill="black"></path><path d="M42.94 0.21 C49.24 1.05, 56.88 4.64, 60.55 7.11 C64.21 9.58, 66.21 12.51, 64.93 15.03 C63.64 17.54, 58.38 20.71, 52.84 22.19 C47.29 23.66, 38.39 23.82, 31.66 23.88 C24.93 23.94, 17.59 24.04, 12.48 22.56 C7.37 21.08, 2.33 17.73, 1 14.98 C-0.33 12.23, 1.19 8.59, 4.51 6.05 C7.83 3.51, 13.42 0.58, 20.93 -0.26 C28.44 -1.1, 43.92 0.17, 49.59 1.01 C55.26 1.84, 55.18 4.5, 54.96 4.76 M24.04 0.59 C30.06 -0.45, 38.66 -0.55, 45.1 0.51 C51.53 1.56, 59.38 4.64, 62.64 6.91 C65.89 9.18, 66.22 11.56, 64.61 14.11 C63.01 16.67, 58.75 20.71, 52.99 22.21 C47.23 23.71, 36.97 23.09, 30.05 23.12 C23.13 23.14, 16.24 23.74, 11.47 22.36 C6.7 20.98, 2.69 17.85, 1.43 14.86 C0.17 11.87, 0.1 6.67, 3.89 4.43 C7.68 2.19, 21.18 1.84, 24.18 1.42 C27.19 1, 21.94 1.64, 21.92 1.91" stroke="#000000" stroke-width="4" fill="none"></path></g><g stroke-linecap="round" transform="translate(846.9582154645375 10) rotate(0 32.41917099416446 12.243797357806528)"><path d="M39.25 0.2 C45.77 0.68, 54.19 2.42, 58.34 4.61 C62.5 6.79, 64.29 10.79, 64.15 13.31 C64.02 15.83, 62.05 17.86, 57.53 19.72 C53.02 21.58, 44.03 23.98, 37.07 24.45 C30.1 24.93, 21.72 23.99, 15.74 22.55 C9.76 21.12, 3.57 18.26, 1.18 15.85 C-1.21 13.44, -1.12 10.57, 1.4 8.1 C3.91 5.63, 9.85 2.36, 16.28 1.05 C22.71 -0.26, 35.65 0.32, 39.98 0.24 C44.32 0.16, 42.2 0.42, 42.28 0.57 M39.15 -0.93 C45.7 -0.46, 55.92 3.65, 60.2 6.01 C64.47 8.37, 65.72 10.86, 64.8 13.22 C63.87 15.59, 59.36 18.56, 54.63 20.19 C49.9 21.82, 43.33 22.57, 36.41 23.02 C29.49 23.46, 19.21 24.11, 13.11 22.85 C7.02 21.59, 1.46 18.18, -0.17 15.43 C-1.8 12.69, 0.22 8.71, 3.33 6.37 C6.44 4.03, 12.39 2.57, 18.49 1.39 C24.6 0.2, 36.31 -0.8, 39.97 -0.74 C43.62 -0.68, 40.63 1.43, 40.42 1.73" stroke="none" stroke-width="0" fill="black"></path><path d="M36.42 0.15 C43.14 0.54, 52.65 2.76, 57.49 4.64 C62.33 6.53, 65.29 9.03, 65.46 11.44 C65.63 13.84, 62.99 16.79, 58.51 19.07 C54.02 21.36, 45.26 24.41, 38.53 25.15 C31.8 25.9, 24.05 24.93, 18.13 23.57 C12.2 22.2, 5.75 19.56, 2.98 16.96 C0.21 14.37, -0.35 10.59, 1.53 8.01 C3.42 5.43, 6.99 2.65, 14.27 1.5 C21.54 0.34, 38.45 0.76, 45.17 1.08 C51.89 1.39, 54.73 3.3, 54.59 3.4 M42.04 0.35 C48.29 1, 55.36 4.49, 59.15 6.83 C62.93 9.17, 65.68 11.81, 64.74 14.42 C63.8 17.02, 58.61 20.85, 53.52 22.45 C48.43 24.05, 41.19 23.87, 34.19 24.02 C27.19 24.16, 16.87 24.63, 11.51 23.33 C6.15 22.02, 3.16 19.21, 2.04 16.19 C0.91 13.17, 1.98 7.57, 4.77 5.21 C7.55 2.84, 12.38 3.01, 18.73 2 C25.09 0.99, 38.84 -0.67, 42.87 -0.87 C46.91 -1.08, 43.02 0.22, 42.94 0.77" stroke="#000000" stroke-width="4" fill="none"></path></g><g stroke-linecap="round"><g transform="translate(847.9914599264291 22.962891752062205) rotate(0 31.0343010131146 4.959679372801105)"><path d="M0.84 0.34 C1.34 0.63, -2.23 1.41, 2.82 2.87 C7.88 4.34, 23.83 8.22, 31.19 9.11 C38.56 10, 41.7 9.81, 46.99 8.21 C52.28 6.6, 60.28 0.99, 62.92 -0.53 M-0.18 -0.53 C0.2 0.41, -3.07 2.2, 1.98 4.03 C7.02 5.86, 23.06 10.12, 30.09 10.45 C37.13 10.78, 38.9 7.83, 44.19 6.02 C49.48 4.21, 59.06 0.41, 61.85 -0.39" stroke="white" stroke-width="4" fill="none"></path></g></g><g stroke-linecap="round"><g transform="translate(846.1927304606995 46.57416790770549) rotate(0 33.42614576521203 5.648201909674924)"><path d="M0.34 0.19 C1.03 0.62, 0.25 1.59, 5.24 3.4 C10.24 5.21, 22.56 9.75, 30.32 11.06 C38.08 12.37, 45.89 12.32, 51.81 11.27 C57.73 10.21, 63.58 6.05, 65.85 4.72 M-0.95 -0.75 C0.03 -0.25, 2.49 2.92, 7.57 4.6 C12.66 6.28, 22.1 8.57, 29.58 9.32 C37.05 10.08, 46.06 9.76, 52.43 9.12 C58.8 8.47, 65.47 6.05, 67.8 5.46" stroke="white" stroke-width="4" fill="none"></path></g></g><g stroke-linecap="round"><g transform="translate(847.0347733431697 72.37099333995207) rotate(0 32.06475220797154 6.273271160848424)"><path d="M0.19 -0.73 C0.12 -0.42, -1.47 0.58, 0.44 2.19 C2.34 3.79, 7.04 7.26, 11.63 8.91 C16.23 10.56, 21.02 11.56, 28.01 12.07 C34.99 12.58, 47.49 12.82, 53.53 11.96 C59.57 11.1, 62.17 7.83, 64.27 6.9 M-1.17 1.51 C-0.91 1.99, 0.7 2.84, 2.81 3.74 C4.92 4.65, 7.17 5.41, 11.48 6.94 C15.78 8.47, 21.84 12.1, 28.66 12.93 C35.48 13.75, 46.3 12.98, 52.41 11.9 C58.52 10.82, 63.41 7.54, 65.3 6.45" stroke="white" stroke-width="4" fill="none"></path></g></g><g transform="translate(818.3520142440784 121.93476044115005) rotate(0 63.5 24)"><text x="63.5" y="19" font-family="Helvetica, Segoe UI Emoji" font-size="20px" fill="#000000" text-anchor="middle" style="white-space: pre;" direction="ltr">historical</text><text x="63.5" y="43" font-family="Helvetica, Segoe UI Emoji" font-size="20px" fill="#000000" text-anchor="middle" style="white-space: pre;" direction="ltr">feature values</text></g><g stroke-linecap="round"><g transform="translate(744.0768520652537 109.45301755823334) rotate(0 48.78846325597124 -26.126247651988393)"><path d="M0.05 -0.01 C15.98 -8.83, 80.26 -43.43, 96.6 -52.24 M-1.38 -1.07 C14.84 -9.79, 82.44 -42.47, 98.96 -50.98" stroke="#000000" stroke-width="1" fill="none"></path></g><g transform="translate(744.0768520652537 109.45301755823334) rotate(0 48.78846325597124 -26.126247651988393)"><path d="M78.27 -30.36 C85.32 -36.39, 92.34 -47.3, 99.67 -52.75 M78.25 -29.09 C83.93 -36.34, 90.47 -41.3, 98.23 -51.33" stroke="#000000" stroke-width="1" fill="none"></path></g><g transform="translate(744.0768520652537 109.45301755823334) rotate(0 48.78846325597124 -26.126247651988393)"><path d="M69.12 -48.73 C79.83 -47.62, 90.41 -51.4, 99.67 -52.75 M69.11 -47.46 C77.54 -49.21, 86.8 -48.73, 98.23 -51.33" stroke="#000000" stroke-width="1" fill="none"></path></g></g><g stroke-linecap="round"><g transform="translate(749.2134145506898 221.28776546650215) rotate(0 47.85771065518031 22.783672412013743)"><path d="M-0.23 0.36 C16.14 7.73, 81.2 37.46, 97.53 44.82 M-1.81 -0.5 C14.49 6.97, 80.26 38.42, 96.79 46.06" stroke="#000000" stroke-width="1" fill="none"></path></g><g transform="translate(749.2134145506898 221.28776546650215) rotate(0 47.85771065518031 22.783672412013743)"><path d="M67.51 43.98 C73.23 45.11, 79.98 43.92, 95.25 45.8 M66.88 44.14 C76.09 44.16, 85.18 45.61, 96.03 46.45" stroke="#000000" stroke-width="1" fill="none"></path></g><g transform="translate(749.2134145506898 221.28776546650215) rotate(0 47.85771065518031 22.783672412013743)"><path d="M76.26 25.42 C79.95 31.04, 84.58 34.35, 95.25 45.8 M75.63 25.58 C82.11 31.55, 88.41 38.91, 96.03 46.45" stroke="#000000" stroke-width="1" fill="none"></path></g></g><g stroke-linecap="round" transform="translate(852.5967327691048 224.66220936616855) rotate(0 32.46427586595519 38.74623912678908)"><path d="M1.77 1.12 L65.02 -0.02 L63.8 76.61 L1.3 75.6" stroke="none" stroke-width="0" fill="black"></path><path d="M-1.07 0.06 C23.24 1.57, 43.88 -0.38, 66.04 -1.43 M0.52 0.63 C15.67 -0.68, 30.61 -1.61, 64.57 -0.94 M64.14 -1.16 C66.86 23.47, 66.85 45.52, 64.68 76.83 M64.29 0.82 C65.1 29.32, 64.11 60.13, 65.74 78.3 M66.31 78.71 C38.36 78.58, 15.56 78.88, 0.99 79.15 M64.14 77.77 C50.99 78.4, 37.1 77.23, 0.71 78.38 M0.66 77.27 C-0.9 58.86, -1.73 41.97, -1.49 -0.84 M-0.26 78.07 C-0.33 60.48, 0.75 43.02, -0.99 -0.89" stroke="#000000" stroke-width="4" fill="none"></path></g><g stroke-linecap="round" transform="translate(853.1406327068496 291.38192616668675) rotate(0 32.41917099416446 12.2437973578065)"><path d="M41.18 1.27 C47.57 1.84, 54.16 3.01, 58.11 5.05 C62.05 7.09, 65.28 10.96, 64.84 13.51 C64.4 16.05, 60.4 18.66, 55.48 20.33 C50.57 22.01, 42.19 23.33, 35.35 23.54 C28.52 23.75, 20.26 23.06, 14.49 21.61 C8.73 20.15, 2.74 17.2, 0.78 14.81 C-1.18 12.41, -0.17 9.39, 2.72 7.22 C5.61 5.05, 11.16 2.74, 18.13 1.78 C25.1 0.82, 39.31 1.34, 44.56 1.47 C49.8 1.61, 49.88 2.62, 49.59 2.58 M46.31 0.34 C52.19 1.42, 58.58 5.74, 61.23 8.12 C63.89 10.51, 63.9 12.48, 62.26 14.63 C60.61 16.77, 56.86 19.3, 51.37 21 C45.88 22.69, 36.45 24.84, 29.32 24.8 C22.19 24.77, 13.41 22.83, 8.57 20.79 C3.74 18.75, 0.93 15.18, 0.31 12.57 C-0.31 9.96, 0.68 7.32, 4.85 5.11 C9.02 2.9, 18.51 -0.09, 25.34 -0.7 C32.16 -1.31, 42.18 1.2, 45.79 1.44 C49.41 1.67, 47.04 0.59, 47.02 0.69" stroke="none" stroke-width="0" fill="black"></path><path d="M47.12 1.96 C52.94 2.77, 58.86 4.5, 61.71 7 C64.56 9.49, 66.14 14.22, 64.23 16.92 C62.32 19.63, 56.24 21.99, 50.24 23.23 C44.23 24.46, 35.24 24.94, 28.19 24.32 C21.15 23.69, 12.73 21.57, 7.98 19.49 C3.22 17.4, -0.12 14.09, -0.33 11.79 C-0.54 9.49, 2.39 7.68, 6.71 5.69 C11.04 3.71, 18.4 0.38, 25.62 -0.12 C32.85 -0.61, 45.44 2.08, 50.09 2.72 C54.74 3.37, 53.75 3.7, 53.55 3.75 M27.71 -0.79 C34.15 -1.36, 44.3 0.57, 50.1 1.83 C55.9 3.1, 60.18 4.15, 62.52 6.8 C64.85 9.46, 66.26 14.86, 64.11 17.75 C61.96 20.63, 56.12 23.19, 49.61 24.1 C43.1 25.01, 31.93 23.73, 25.07 23.21 C18.21 22.68, 12.86 22.6, 8.45 20.95 C4.03 19.3, -1.3 15.85, -1.42 13.31 C-1.53 10.77, 2.89 7.67, 7.75 5.69 C12.62 3.7, 24.78 2.19, 27.8 1.41 C30.82 0.64, 25.75 1.22, 25.87 1.02" stroke="#000000" stroke-width="4" fill="none"></path></g><g stroke-linecap="round" transform="translate(852.9582154645375 215.00000000000006) rotate(0 32.41917099416446 12.243797357806528)"><path d="M32.64 -0.66 C39.33 -0.97, 47.36 1.07, 52.68 2.8 C58 4.54, 63.27 7.24, 64.55 9.76 C65.83 12.27, 63.9 15.52, 60.35 17.9 C56.8 20.28, 49.76 23.12, 43.24 24.04 C36.72 24.95, 27.77 24.35, 21.22 23.41 C14.67 22.48, 7.41 20.63, 3.94 18.42 C0.48 16.2, -0.87 12.74, 0.41 10.1 C1.7 7.46, 5.32 4.12, 11.65 2.57 C17.97 1.01, 32.94 1.22, 38.34 0.79 C43.75 0.37, 44.4 -0.23, 44.07 0.01 M40.56 -0.18 C47.17 0.13, 56.44 1.62, 60.31 4 C64.18 6.37, 64.91 11.24, 63.79 14.08 C62.67 16.92, 58.37 19.41, 53.57 21.02 C48.77 22.62, 41.71 23.47, 34.99 23.69 C28.28 23.91, 19.05 23.95, 13.26 22.34 C7.48 20.74, 1.96 16.44, 0.29 14.05 C-1.38 11.65, 0.28 10.2, 3.26 7.95 C6.25 5.7, 11.79 1.6, 18.19 0.52 C24.59 -0.56, 37.94 1.3, 41.66 1.45 C45.38 1.61, 40.75 1.28, 40.51 1.45" stroke="none" stroke-width="0" fill="black"></path><path d="M42.36 -0.19 C48.59 0.6, 55.08 4.08, 58.95 6.48 C62.82 8.88, 66.18 11.74, 65.56 14.22 C64.94 16.69, 60.46 19.68, 55.22 21.32 C49.99 22.95, 41.35 23.96, 34.15 24.02 C26.94 24.09, 17.7 23.2, 11.99 21.69 C6.29 20.18, 1.17 17.44, -0.08 14.96 C-1.34 12.48, 1.21 9.23, 4.44 6.8 C7.66 4.38, 11.74 1.19, 19.27 0.41 C26.8 -0.38, 43.6 1.54, 49.63 2.11 C55.65 2.67, 55.8 3.72, 55.4 3.78 M44.42 2.26 C50.64 2.93, 58.57 3.98, 61.59 6.34 C64.62 8.7, 64.04 13.61, 62.58 16.44 C61.13 19.27, 58.05 22.22, 52.89 23.31 C47.72 24.41, 38.91 23.2, 31.6 23.01 C24.28 22.81, 14.07 23.95, 8.99 22.15 C3.91 20.35, 1.52 14.98, 1.12 12.2 C0.71 9.42, 2.66 7.29, 6.58 5.47 C10.5 3.64, 17.97 2.2, 24.64 1.24 C31.32 0.29, 43.12 -0.43, 46.63 -0.27 C50.15 -0.11, 46.36 1.72, 45.74 2.19" stroke="#000000" stroke-width="4" fill="none"></path></g><g stroke-linecap="round"><g transform="translate(853.9914599264291 227.9628917520622) rotate(0 31.564851682464678 4.662267950710827)"><path d="M1.16 0.71 C1.84 1.22, -1.82 1.88, 3.4 3.14 C8.63 4.39, 25.55 7.31, 32.5 8.22 C39.45 9.13, 39.97 9.9, 45.1 8.62 C50.23 7.34, 60.32 1.97, 63.29 0.55 M0.31 0.03 C0.95 0.71, -2.44 2.92, 2.86 4.43 C8.15 5.94, 25.07 8.72, 32.09 9.09 C39.1 9.46, 39.91 7.95, 44.96 6.65 C50.02 5.35, 59.74 2.52, 62.42 1.27" stroke="white" stroke-width="4" fill="none"></path></g></g><g stroke-linecap="round"><g transform="translate(852.1927304606995 251.5741679077055) rotate(0 33.27700394330873 5.95147739188576)"><path d="M0.71 0.77 C1.62 1.36, 0.72 3.31, 5.51 4.71 C10.29 6.11, 21.65 8.01, 29.43 9.16 C37.22 10.32, 45.97 12.36, 52.22 11.64 C58.47 10.91, 64.56 6.09, 66.94 4.81 M-0.38 0.13 C0.33 0.88, -1.06 1.27, 4.31 2.93 C9.69 4.6, 24.36 8.97, 31.88 10.1 C39.39 11.22, 43.74 10.43, 49.4 9.68 C55.05 8.93, 62.69 6.73, 65.79 5.6" stroke="white" stroke-width="4" fill="none"></path></g></g><g stroke-linecap="round"><g transform="translate(853.0347733431697 277.37099333995207) rotate(0 32.93560867128258 6.017730921938039)"><path d="M0.77 -0.47 C0.87 -0.37, 0.25 -0.34, 1.74 1.29 C3.24 2.92, 5.3 7.35, 9.74 9.32 C14.18 11.3, 21.06 12.54, 28.38 13.15 C35.69 13.76, 47.53 14.3, 53.62 12.98 C59.71 11.67, 63.23 6.52, 64.93 5.25 M-0.29 -1.76 C-0.39 -1.59, -0.95 0.83, 1.14 2.38 C3.23 3.93, 8.18 6.14, 12.25 7.57 C16.32 8.99, 18.85 9.94, 25.56 10.92 C32.28 11.9, 45.76 14.02, 52.55 13.46 C59.34 12.91, 64.42 8.59, 66.3 7.59" stroke="white" stroke-width="4" fill="none"></path></g></g><g transform="translate(830.8520142440784 327.93476044115005) rotate(0 62.5 24)"><text x="62.5" y="19" font-family="Helvetica, Segoe UI Emoji" font-size="20px" fill="#000000" text-anchor="middle" style="white-space: pre;" direction="ltr">latest feature </text><text x="62.5" y="43" font-family="Helvetica, Segoe UI Emoji" font-size="20px" fill="#000000" text-anchor="middle" style="white-space: pre;" direction="ltr">values</text></g><g stroke-linecap="round"><g transform="translate(234.2002267854682 343.7686278288079) rotate(0 110.47166512404684 0.14453339079670968)"><path d="M0.93 0.49 C37.49 0.28, 182.46 -0.52, 218.72 -0.55 M-0.05 -0.3 C36.96 -0.4, 184.18 1.04, 220.99 0.81" stroke="black" stroke-width="2" fill="none"></path></g></g><g stroke-linecap="round"><g transform="translate(245.17157945401937 375.6212735397644) rotate(0 -13.047966946785948 -67.18395498100563)"><path d="M-9.04 -33.15 C-11.31 -34.04, -19.53 -35.3, -22.4 -36.74 C-25.26 -38.17, -24.76 -39.62, -26.23 -41.74 C-27.7 -43.86, -30.89 -44.43, -31.23 -49.44 C-31.58 -54.46, -29.15 -66.27, -28.28 -71.85 C-27.41 -77.43, -28.33 -79.35, -25.99 -82.93 C-23.65 -86.51, -18.16 -90.04, -14.26 -93.31 C-10.36 -96.58, -5.85 -101.13, -2.57 -102.57 C0.71 -104.01, 4.02 -102.06, 5.42 -101.93 M-10.24 -30.97 C-12.76 -31.83, -20.79 -34.12, -23.53 -35.77 C-26.27 -37.41, -25.38 -38.23, -26.69 -40.85 C-28.01 -43.48, -31.02 -46.46, -31.44 -51.53 C-31.86 -56.61, -30.31 -66.44, -29.21 -71.3 C-28.12 -76.16, -26.94 -76.89, -24.85 -80.72 C-22.76 -84.54, -20.74 -90.58, -16.68 -94.25 C-12.62 -97.91, -3.94 -101.26, -0.49 -102.69 C2.96 -104.12, 3.36 -102.98, 4 -102.82" stroke="black" stroke-width="2" fill="none"></path></g></g><g stroke-linecap="round"><g transform="translate(253.7139119749438 304.46005595297686) rotate(0 41.84741237198642 -70.69028342090104)"><path d="M-4.4 -33.76 C-5.95 -38.03, -10.68 -51.84, -11.98 -58.55 C-13.27 -65.27, -13.01 -70.35, -12.18 -74.04 C-11.35 -77.73, -9.64 -77.05, -6.99 -80.69 C-4.35 -84.33, -0.04 -92.4, 3.68 -95.88 C7.41 -99.36, 11.04 -99.65, 15.34 -101.57 C19.64 -103.48, 23.41 -106.62, 29.46 -107.37 C35.51 -108.11, 44.09 -107.15, 51.64 -106.02 C59.18 -104.89, 69.81 -101.91, 74.73 -100.59 C79.64 -99.27, 77.6 -102.83, 81.11 -98.1 C84.63 -93.38, 93.52 -76.53, 95.8 -72.24 M-2.63 -34.99 C-3.91 -39.65, -8.65 -54.01, -9.83 -60.38 C-11.01 -66.74, -10.3 -69.46, -9.71 -73.18 C-9.12 -76.9, -8.3 -78.95, -6.28 -82.71 C-4.27 -86.47, -1.4 -92.54, 2.37 -95.76 C6.14 -98.97, 12.27 -100.37, 16.35 -102.01 C20.43 -103.65, 21.11 -104.92, 26.85 -105.6 C32.6 -106.29, 43.05 -106.79, 50.83 -106.11 C58.62 -105.43, 68.89 -103.3, 73.55 -101.52 C78.21 -99.74, 74.95 -100.42, 78.78 -95.44 C82.62 -90.47, 94.14 -75.36, 96.57 -71.65" stroke="black" stroke-width="2" fill="none"></path></g></g><g stroke-linecap="round"><g transform="translate(347.1811951038544 236.88694110507515) rotate(0 42.390483728582694 4.64873173020726)"><path d="M-0.34 -6.14 C1.72 -7.45, 7.99 -12.28, 12.84 -13.79 C17.68 -15.31, 19.68 -15.54, 28.72 -15.22 C37.77 -14.91, 58.73 -13.85, 67.11 -11.9 C75.48 -9.95, 75.99 -9.92, 78.99 -3.54 C81.99 2.85, 84.47 21.48, 85.12 26.41 M1.68 -4.09 C3.59 -5.2, 7.28 -10.52, 12.19 -12.69 C17.1 -14.85, 21.88 -17.44, 31.16 -17.1 C40.45 -16.76, 59.6 -12.89, 67.89 -10.64 C76.18 -8.38, 78.31 -9.62, 80.91 -3.55 C83.51 2.52, 83.12 21.03, 83.47 25.78" stroke="black" stroke-width="2" fill="none"></path></g></g><g stroke-linecap="round"><g transform="translate(460.62522072077115 383.6243509311629) rotate(0 2.099694267810719 -83.74054507850298)"><path d="M-9.08 -39.62 C-5.78 -41.49, 5.09 -47.55, 10.95 -51.75 C16.81 -55.94, 22.93 -60.05, 26.08 -64.79 C29.23 -69.53, 29.39 -74.6, 29.84 -80.21 C30.28 -85.81, 29.83 -92.44, 28.77 -98.42 C27.71 -104.39, 26.6 -111.55, 23.47 -116.06 C20.33 -120.58, 14.37 -123.63, 9.97 -125.49 C5.57 -127.36, 1.74 -127.27, -2.94 -127.22 C-7.62 -127.18, -14.5 -126.28, -18.12 -125.24 C-21.74 -124.19, -23.39 -121.65, -24.65 -120.96 M-7.45 -40.36 C-3.7 -42.07, 7.69 -46.29, 13.23 -50.66 C18.77 -55.04, 22.94 -61.81, 25.78 -66.59 C28.61 -71.38, 29.45 -73.63, 30.24 -79.38 C31.04 -85.13, 31.99 -95.32, 30.55 -101.09 C29.11 -106.86, 24.91 -109.74, 21.63 -113.99 C18.34 -118.24, 15.02 -124.4, 10.84 -126.59 C6.66 -128.77, 1.54 -127.63, -3.47 -127.12 C-8.48 -126.6, -15.29 -124.4, -19.23 -123.51 C-23.16 -122.63, -26.07 -122.31, -27.09 -121.81" stroke="black" stroke-width="2" fill="none"></path></g></g><g transform="translate(274.3520142440784 276.93476044115005) rotate(0 68 12)"><text x="68" y="19" font-family="Helvetica, Segoe UI Emoji" font-size="20px" fill="#000000" text-anchor="middle" style="white-space: pre;" direction="ltr">your ML model</text></g><g stroke-linecap="round"><g transform="translate(847.5349991119851 306.0366191243438) rotate(0 -55.532956849921106 -29.729640678183557)"><path d="M0.2 0.67 C-18.11 -9.3, -91.79 -49.99, -110.35 -60.13 M-1.16 -0.03 C-19.57 -9.75, -93.34 -48.74, -111.26 -58.53" stroke="#000000" stroke-width="1" fill="none"></path></g><g transform="translate(847.5349991119851 306.0366191243438) rotate(0 -55.532956849921106 -29.729640678183557)"><path d="M-80.46 -54.14 C-88.95 -56.59, -96.54 -57.76, -112.51 -58.86 M-81.18 -53.43 C-90.93 -56.15, -102.07 -57.1, -111.94 -58.13" stroke="#000000" stroke-width="1" fill="none"></path></g><g transform="translate(847.5349991119851 306.0366191243438) rotate(0 -55.532956849921106 -29.729640678183557)"><path d="M-90.15 -36.05 C-96.12 -43.13, -101.24 -48.91, -112.51 -58.86 M-90.87 -35.34 C-97.46 -44.29, -105.25 -51.48, -111.94 -58.13" stroke="#000000" stroke-width="1" fill="none"></path></g></g><g stroke-linecap="round"><g transform="translate(568.3520142440784 226.43476044115005) rotate(0 -38.106496487921106 18.778031560396784)"><path d="M-0.41 0.55 C-13.08 6.55, -63.84 30.69, -76.55 36.84 M1.58 -0.21 C-11.25 5.83, -65.16 31.32, -77.79 37.77" stroke="#000000" stroke-width="1" fill="none"></path></g><g transform="translate(568.3520142440784 226.43476044115005) rotate(0 -38.106496487921106 18.778031560396784)"><path d="M-56.05 15.26 C-64.08 20.45, -68.37 26.41, -79.23 38.14 M-57.44 16.62 C-63.34 22.31, -70.56 30.47, -77.98 37.15" stroke="#000000" stroke-width="1" fill="none"></path></g><g transform="translate(568.3520142440784 226.43476044115005) rotate(0 -38.106496487921106 18.778031560396784)"><path d="M-47.05 33.7 C-57.5 34.14, -64.09 35.38, -79.23 38.14 M-48.44 35.06 C-57.15 35.16, -67.14 37.64, -77.98 37.15" stroke="#000000" stroke-width="1" fill="none"></path></g></g><g stroke-linecap="round"><g transform="translate(219.35201424407842 279.43476044115005) rotate(0 -69.95759900212289 -25.361431473493553)"><path d="M0.14 0 C-23.11 -8.28, -116.69 -42.36, -140.06 -50.72 M-1.24 -1.05 C-24.09 -9.1, -115.15 -41.58, -137.9 -49.56" stroke="#000000" stroke-width="1" fill="none"></path></g><g transform="translate(219.35201424407842 279.43476044115005) rotate(0 -69.95759900212289 -25.361431473493553)"><path d="M-107.91 -51.58 C-116.72 -51.49, -123.39 -51, -138.75 -51.36 M-107.44 -49.64 C-118.22 -49.64, -130.6 -50.1, -138.18 -48.76" stroke="#000000" stroke-width="1" fill="none"></path></g><g transform="translate(219.35201424407842 279.43476044115005) rotate(0 -69.95759900212289 -25.361431473493553)"><path d="M-114.76 -32.24 C-121.66 -37.06, -126.59 -41.49, -138.75 -51.36 M-114.29 -30.29 C-122.38 -37.59, -132.19 -45.33, -138.18 -48.76" stroke="#000000" stroke-width="1" fill="none"></path></g></g><g stroke-linecap="round" transform="translate(1026.8520142440784 90.93476044115005) rotate(0 91.5 88.5)"><path d="M15.33 39.83 C15.33 39.83, 15.33 39.83, 15.33 39.83 M15.33 39.83 C15.33 39.83, 15.33 39.83, 15.33 39.83 M9.95 50.73 C21.41 39.91, 31.03 26.37, 43.41 16.83 M11.37 50.32 C16.89 43.99, 23.5 34.96, 42.62 14.64 M7.04 61.24 C21.35 45.8, 36.71 27.79, 50.79 12.18 M5.88 63.27 C22.09 45.02, 37.33 24.75, 49.06 13.1 M2.13 73.55 C17.37 57.51, 31.54 43.03, 55.93 9.22 M2.83 72.52 C19.22 53.15, 37.99 31.25, 57.61 8.45 M2.92 80.15 C16.94 63.94, 34.06 46.79, 65.78 5.54 M3.02 79.39 C16.02 63.66, 28.43 49.36, 64.86 7.3 M1.67 85.89 C30.1 52.4, 56.06 21.83, 74.59 2.44 M2.45 85.63 C18.97 66.35, 33.21 49.27, 72.88 2.59 M1.9 90.82 C34.16 55.76, 63.1 22.56, 79.78 2.31 M2.6 90.81 C30.88 56.57, 62.66 22.87, 78.57 3.4 M4.24 97.84 C20.6 74.48, 42.99 52.03, 82.72 2.3 M1.68 98.38 C31.18 62.99, 61.19 30.68, 83.95 3.14 M1.98 104.33 C22.69 78.55, 46.98 52.88, 89.83 2.06 M1.8 103.88 C26.07 76.79, 49.9 48.03, 90.77 1.82 M2.15 109.46 C35.9 74.38, 65.61 39.85, 93.65 3.06 M3.42 108.7 C22.36 86.52, 42.15 65.16, 95.08 3.85 M5.17 114.43 C26.8 87.28, 52.31 61.42, 100.38 4.28 M4.58 112.85 C27.59 88.27, 50.61 62.54, 100.24 4.21 M7.2 116.74 C28 92.25, 49.57 69.75, 106.31 2.26 M6.75 117.72 C28.68 92.74, 51.25 66.2, 104.88 3.02 M7.09 122.17 C33.59 93.02, 57.79 65.08, 109.43 3.28 M9.24 120.54 C47.41 74.52, 85.88 28.4, 110.02 4.23 M10.76 125.27 C39.43 90.44, 67.57 60.36, 117.1 3.68 M11.12 125.39 C32.64 98.14, 55.85 71.57, 116.2 4.43 M11.51 128.36 C50.15 89.51, 81.7 48.94, 121.8 6.59 M12.99 128.73 C40.66 98.85, 65.05 68.14, 120.75 4.06 M15.69 132.57 C45.52 94.65, 76.43 58.87, 125.33 4.89 M14.19 132.88 C54.88 85.23, 97.78 37.64, 123.52 6.91 M19.03 136.79 C41.04 110.56, 66.68 81.42, 127.22 9.26 M16.6 135.49 C47.24 101.24, 79.45 65.06, 126.72 8.62 M20.32 140.69 C53.33 100.49, 91.5 60.11, 131.05 9.91 M17.84 139.1 C49.58 102.39, 80.11 66.88, 130.82 10.97 M21.07 144.49 C48.96 110.17, 78.07 76.23, 136.13 12.82 M20.42 143.35 C60.19 97, 100 50.64, 133.68 12.57 M23.14 147.41 C66.82 94.11, 111.67 46.49, 135.84 13.52 M22.88 145.97 C50.57 112.3, 80.74 78.39, 138.38 15.17 M28.49 148.49 C50.79 124.21, 71.05 95.02, 143.23 15.06 M27.02 148.09 C58.78 111.91, 92.48 73.26, 140.37 16.09 M30.13 151.02 C73.87 100.32, 120.19 49.5, 146.11 17.52 M30.36 151.16 C55.35 123.75, 81.67 93.78, 144.02 18.28 M34.43 152.33 C63.49 119.79, 90.23 89.86, 148.66 20.01 M33.94 153.26 C65.34 115.56, 98.85 77.24, 147.75 20.82 M37.49 155.8 C57.86 127.11, 82.01 101.32, 153.79 22.43 M36.26 155.58 C67 119.9, 100.06 82.52, 151.87 23.11 M40.14 159.32 C65.86 132.21, 86.16 103.55, 152.79 23.97 M39.64 159.41 C77.99 115.52, 116.11 69.65, 153.76 25.95 M44.23 159.32 C87.02 110.56, 131.33 58.96, 156.33 27.58 M42.17 160.66 C74.65 124.06, 106.65 86.71, 156.31 28.46 M44.37 162.99 C82.24 122.33, 116.03 79.94, 158.11 32.74 M44.8 164.58 C89.93 114.38, 133.5 63.86, 159.18 31.39 M46.85 165.34 C79.36 131.57, 109.37 95.22, 160.6 33.97 M47.89 167.31 C81.3 130.2, 115.35 92.53, 161.91 36.11 M52.71 170.13 C77.96 138.35, 107.79 106.42, 165.95 37.33 M51.68 169.32 C94.12 120.49, 135.23 72.18, 164.41 39.57 M54 169.41 C80.79 137.41, 110.05 106.94, 168.37 40.41 M56.12 169.45 C88.89 130.63, 122.64 93.63, 166.85 42.85 M60.87 173.01 C91.97 136.94, 122.21 100.94, 169.81 44.55 M59.43 170.9 C102.79 123.82, 144.05 74.36, 168.76 45.89 M64.5 173.05 C94.45 133.48, 129.85 98.15, 171.56 47.17 M64.51 172.24 C98.69 133.75, 132.51 93.74, 172.23 48.23 M66.8 174.43 C104.19 134.2, 143.24 88.97, 174.68 49.68 M68.19 174.38 C102.33 133.94, 135.81 96.32, 175.77 51.53 M71.39 175.83 C99.13 141.91, 129.99 107.39, 179.57 53.29 M73.65 174.11 C104.13 137.69, 136.45 101.45, 177.41 53.79 M78.61 174.69 C114.48 134.33, 152.89 89.62, 178.42 59.51 M76.98 175.56 C99.48 149.43, 120.52 124.5, 178.62 58.4 M80.5 176.27 C101.46 155.85, 123.79 132.3, 178.73 65.35 M81.67 177.73 C100.05 153.18, 120.38 131.35, 179.37 63.84 M88.51 177.82 C114.71 141.18, 144.93 109.34, 179.73 67.85 M85.74 177.22 C116.01 143.09, 145.68 108.58, 182.05 68.69 M91.14 175.16 C125.95 136.35, 159.4 98.34, 181.39 74.85 M92.94 177.24 C120.46 143.11, 150.93 109.04, 181.93 72.9 M97.58 174.85 C132.64 138.52, 162.19 102.15, 182.73 78.72 M97.94 176.38 C115.85 154.31, 135.88 133.14, 183.02 80.04 M103.48 176.78 C129.61 147.78, 152.26 118.46, 183.48 82.34 M103.45 175.58 C134.17 139.69, 163.19 105.08, 183.18 83.78 M109.78 174.58 C135.14 144.81, 164.98 111.43, 183.09 88.65 M110.73 175.13 C132.09 147.65, 154.59 121.07, 184.72 89.88 M117.2 173.93 C137.88 150.1, 155.3 128.59, 183.79 97.62 M117.44 173.42 C130.42 157.7, 144.96 140.75, 182.85 97.77 M123.84 170.55 C140.02 151.23, 158.9 128.23, 180.74 102.97 M122.79 171.48 C142.53 149.78, 161.67 126.49, 181.41 105.66 M132.08 166.63 C148.79 147.67, 161.4 131.23, 181.89 113.47 M133.98 165.89 C146.5 150.35, 159.81 136.31, 180.19 112.42 M145.22 160.48 C155.05 149.59, 163.91 135.69, 175.63 121.71 M144.26 158.93 C151.53 153.26, 157.79 143.85, 176.1 122.78" stroke="#fab005" stroke-width="0.5" fill="none"></path><path d="M119.11 3.93 C130.76 6.13, 142.88 14.4, 152.16 22.36 C161.43 30.32, 169.77 40.97, 174.76 51.69 C179.74 62.41, 181.99 74.77, 182.08 86.7 C182.17 98.63, 179.93 112.24, 175.32 123.26 C170.71 134.29, 163.25 144.88, 154.42 152.85 C145.59 160.83, 133.92 167.22, 122.35 171.09 C110.78 174.97, 97.27 176.86, 85.01 176.11 C72.75 175.35, 59.63 172.03, 48.78 166.57 C37.94 161.1, 27.72 152.65, 19.96 143.33 C12.19 134.01, 5.15 122.38, 2.17 110.66 C-0.8 98.94, -0.11 84.85, 2.12 73.01 C4.34 61.17, 8.93 49.3, 15.51 39.62 C22.08 29.94, 31.17 21.35, 41.58 14.95 C51.99 8.54, 65.9 3.16, 77.96 1.17 C90.03 -0.83, 106.36 2.3, 113.97 2.97 C121.58 3.64, 121.52 4.11, 123.64 5.19 C125.76 6.27, 127.26 7.91, 126.67 9.43 M47.09 10.68 C57 3.8, 72.58 -0.07, 84.84 -1.16 C97.11 -2.24, 109.22 0.23, 120.68 4.19 C132.15 8.14, 144.62 14.33, 153.64 22.57 C162.67 30.8, 170 42.37, 174.83 53.6 C179.67 64.84, 182.85 78.07, 182.64 89.96 C182.44 101.85, 178.4 114.23, 173.59 124.97 C168.79 135.71, 162.73 146.52, 153.81 154.4 C144.88 162.28, 131.96 168.77, 120.03 172.26 C108.1 175.75, 94.41 176.63, 82.22 175.36 C70.02 174.09, 57.54 170.53, 46.85 164.62 C36.17 158.71, 25.57 149.09, 18.11 139.9 C10.65 130.7, 4.73 120.78, 2.07 109.46 C-0.59 98.14, 0.01 83.99, 2.14 71.98 C4.28 59.97, 7.88 47.47, 14.89 37.39 C21.91 27.32, 38.55 15.82, 44.24 11.54 C49.93 7.25, 48.27 11.69, 49.03 11.69 C49.79 11.69, 48.39 10.55, 48.8 11.53" stroke="#000000" stroke-width="1" fill="none"></path></g><g transform="translate(1042.3520142440784 155.43476044115005) rotate(0 76 24)"><text x="76" y="19" font-family="Helvetica, Segoe UI Emoji" font-size="20px" fill="#000000" text-anchor="middle" style="white-space: pre;" direction="ltr">Featury</text><text x="76" y="43" font-family="Helvetica, Segoe UI Emoji" font-size="20px" fill="#000000" text-anchor="middle" style="white-space: pre;" direction="ltr">batch processing</text></g><g stroke-linecap="round"><g transform="translate(919.3520142440784 53.822752971619934) rotate(0 62.688827086457536 30.43817845161226)"><path d="M1.02 -1.19 C22 9.32, 104.54 51.71, 125.29 62.07 M0.09 0.79 C21.03 11.04, 103.83 49.99, 124.68 60.19" stroke="#000000" stroke-width="1" fill="none"></path></g><g transform="translate(919.3520142440784 53.822752971619934) rotate(0 62.688827086457536 30.43817845161226)"><path d="M92.83 58.36 C103.01 59.21, 108.65 57.89, 125.94 58.99 M94.71 57 C106.3 58.39, 116.73 58.56, 124.85 60.62" stroke="#000000" stroke-width="1" fill="none"></path></g><g transform="translate(919.3520142440784 53.822752971619934) rotate(0 62.688827086457536 30.43817845161226)"><path d="M101.69 39.85 C109.5 45.39, 112.93 48.68, 125.94 58.99 M103.57 38.49 C112 46.82, 119.1 53.94, 124.85 60.62" stroke="#000000" stroke-width="1" fill="none"></path></g></g><g stroke-linecap="round"><g transform="translate(1030.2417405258 215.98818122796564) rotate(0 -50.755088597813824 30.640861066035143)"><path d="M0.27 0.72 C-16.79 10.7, -84.95 50.28, -101.78 60.17 M-1.04 0.05 C-17.79 10.13, -82.81 51.1, -99.54 61.23" stroke="#000000" stroke-width="1" fill="none"></path></g><g transform="translate(1030.2417405258 215.98818122796564) rotate(0 -50.755088597813824 30.640861066035143)"><path d="M-79.77 36.18 C-88.94 46.22, -95.63 53.16, -97.63 62.26 M-80.15 37.64 C-87.25 46.49, -93.47 53.45, -98.65 62.03" stroke="#000000" stroke-width="1" fill="none"></path></g><g transform="translate(1030.2417405258 215.98818122796564) rotate(0 -50.755088597813824 30.640861066035143)"><path d="M-68.97 53.63 C-81.97 57.57, -92.46 58.39, -97.63 62.26 M-69.35 55.09 C-80.06 57.99, -89.95 59.03, -98.65 62.03" stroke="#000000" stroke-width="1" fill="none"></path></g></g></svg>